<svg width="350" height="500" version="1.1" xmlns="http://www.w3.org/2000/svg"><defs><marker id="arrowhead2" refX="24" refY="4" markerUnits="userSpaceOnUse" markerWidth="24" markerHeight="8" orient="auto"><path d="M 0,0 V 8 L12,4 Z"></path></marker><marker id="arrowhead3" refX="24" refY="4" markerUnits="userSpaceOnUse" markerWidth="24" markerHeight="8" orient="auto-start-reverse"><path d="M 0,0 V 8 L12,4 Z"></path></marker>
<style type="text/css"><![CDATA[text {   font-family:Arial,Helvetica;   font-size: 12px; }  /* .unselectable {   -webkit-touch-callout: none;   -webkit-user-select: none;   -khtml-user-select: none;   -moz-user-select: none;   -ms-user-select: none;   user-select: none; }  .resource {   -webkit-touch-callout: none;   -webkit-user-select: none;   -khtml-user-select: none;   -moz-user-select: none;   -ms-user-select: none;   user-select: none; } */  input.tooltip {   position: absolute;   text-align: center;   width : 30px;   padding: 2px; }  .excessBar {   fill: lightblue;   stroke: black;   stroke-width: 1px; }   .flow {   stroke: lightblue;   stroke-width: 1.5px; }   .cap {   stroke: #ccc;   stroke-width: 1.5px; }  circle.selected{   stroke: rgba(174,219,33, 0.7);   stroke-width: 7px; }  .excess{   stroke: #a00; }  .height{   stroke: #0a0; }    .timewindow {   fill: rgb(152, 198, 234);   fill-opacity: 1.0;   stroke-width: 4;   stroke: rgb(0, 101, 189); }  #testArc {   stroke: #ccc;   stroke-width: 1.5px;   fill: none; }  #testArc.hidden {   display: none; }  .axis {   shape-rendering: crispEdges; }  .axis .minor line {   stroke: #777;   stroke-dasharray: 2,2; }  .axis line, .axis path {   fill: none;   stroke: #000; } ]]></style></defs><g transform="translate(25,17)"><rect class="timewindow" opacity="1" x="224.5" width="133" y="19" height="464"></rect><g id="labels"><g class="label unselectable" opacity="1"><path class="labelpath" d="M25,447L202.33333333333334,330.2727272727273L291,57.90909090909092" style="stroke: magenta; fill: none; stroke-width: 2; stroke-dasharray: 0;"></path><g class="labelend" transform="translate(291,57.90909090909092)" style="cursor: pointer;"><rect rx="50" ry="5" height="20" y="-10" width="10" x="-5" style="fill: magenta; stroke-width: 0.5; stroke: black;"></rect><text dominant-baseline="middle" style="text-anchor: middle;">e</text></g></g><g class="label unselectable" opacity="1"><path class="labelpath" d="M25,447L135.83333333333334,252.45454545454544L224.5,252.45454545454544L268.8333333333333,19" style="stroke: gray; fill: none; stroke-width: 4; stroke-dasharray: 0;"></path><g class="labelend" transform="translate(268.8333333333333,19)" style="cursor: pointer;"><rect rx="50" ry="5" height="20" y="-10" width="10" x="-5" style="fill: rgb(115, 183, 141); stroke-width: 2; stroke: black;"></rect><text dominant-baseline="middle" style="text-anchor: middle;">f</text></g></g></g><g class="x axis" transform="translate(0,464)"><g class="tick" transform="translate(25,0)" style="opacity: 1;"><line y2="6" x2="0"></line><text dy=".71em" y="9" x="0" style="text-anchor: middle;">0</text></g><g class="tick" transform="translate(47.16666793823242,0)" style="opacity: 1;"><line y2="6" x2="0"></line><text dy=".71em" y="9" x="0" style="text-anchor: middle;">1</text></g><g class="tick" transform="translate(69.33333587646484,0)" style="opacity: 1;"><line y2="6" x2="0"></line><text dy=".71em" y="9" x="0" style="text-anchor: middle;">2</text></g><g class="tick" transform="translate(91.5,0)" style="opacity: 1;"><line y2="6" x2="0"></line><text dy=".71em" y="9" x="0" style="text-anchor: middle;">3</text></g><g class="tick" transform="translate(113.66666412353516,0)" style="opacity: 1;"><line y2="6" x2="0"></line><text dy=".71em" y="9" x="0" style="text-anchor: middle;">4</text></g><g class="tick" transform="translate(135.8333282470703,0)" style="opacity: 1;"><line y2="6" x2="0"></line><text dy=".71em" y="9" x="0" style="text-anchor: middle;">5</text></g><g class="tick" transform="translate(158,0)" style="opacity: 1;"><line y2="6" x2="0"></line><text dy=".71em" y="9" x="0" style="text-anchor: middle;">6</text></g><g class="tick" transform="translate(180.1666717529297,0)" style="opacity: 1;"><line y2="6" x2="0"></line><text dy=".71em" y="9" x="0" style="text-anchor: middle;">7</text></g><g class="tick" transform="translate(202.3333282470703,0)" style="opacity: 1;"><line y2="6" x2="0"></line><text dy=".71em" y="9" x="0" style="text-anchor: middle;">8</text></g><g class="tick" transform="translate(224.5,0)" style="opacity: 1;"><line y2="6" x2="0"></line><text dy=".71em" y="9" x="0" style="text-anchor: middle;">9</text></g><g class="tick" transform="translate(246.6666717529297,0)" style="opacity: 1;"><line y2="6" x2="0"></line><text dy=".71em" y="9" x="0" style="text-anchor: middle;">10</text></g><g class="tick" transform="translate(268.8333435058594,0)" style="opacity: 1;"><line y2="6" x2="0"></line><text dy=".71em" y="9" x="0" style="text-anchor: middle;">11</text></g><g class="tick" transform="translate(291,0)" style="opacity: 1;"><line y2="6" x2="0"></line><text dy=".71em" y="9" x="0" style="text-anchor: middle;">12</text></g><path class="domain" d="M25,6V0H291V6"></path><text class="label" x="308" y="0" style="text-anchor: end;">time</text></g><g class="y axis" transform="translate(10,0)"><g class="tick" transform="translate(0,447)" style="opacity: 1;"><line x2="-6" y2="0"></line><text dy=".32em" x="-9" y="0" style="text-anchor: end;">0</text></g><g class="tick" transform="translate(0,408.0909118652344)" style="opacity: 1;"><line x2="-6" y2="0"></line><text dy=".32em" x="-9" y="0" style="text-anchor: end;">1</text></g><g class="tick" transform="translate(0,369.18182373046875)" style="opacity: 1;"><line x2="-6" y2="0"></line><text dy=".32em" x="-9" y="0" style="text-anchor: end;">2</text></g><g class="tick" transform="translate(0,330.2727355957031)" style="opacity: 1;"><line x2="-6" y2="0"></line><text dy=".32em" x="-9" y="0" style="text-anchor: end;">3</text></g><g class="tick" transform="translate(0,291.3636474609375)" style="opacity: 1;"><line x2="-6" y2="0"></line><text dy=".32em" x="-9" y="0" style="text-anchor: end;">4</text></g><g class="tick" transform="translate(0,252.4545440673828)" style="opacity: 1;"><line x2="-6" y2="0"></line><text dy=".32em" x="-9" y="0" style="text-anchor: end;">5</text></g><g class="tick" transform="translate(0,213.5454559326172)" style="opacity: 1;"><line x2="-6" y2="0"></line><text dy=".32em" x="-9" y="0" style="text-anchor: end;">6</text></g><g class="tick" transform="translate(0,174.63636779785156)" style="opacity: 1;"><line x2="-6" y2="0"></line><text dy=".32em" x="-9" y="0" style="text-anchor: end;">7</text></g><g class="tick" transform="translate(0,135.72727966308594)" style="opacity: 1;"><line x2="-6" y2="0"></line><text dy=".32em" x="-9" y="0" style="text-anchor: end;">8</text></g><g class="tick" transform="translate(0,96.81818389892578)" style="opacity: 1;"><line x2="-6" y2="0"></line><text dy=".32em" x="-9" y="0" style="text-anchor: end;">9</text></g><g class="tick" transform="translate(0,57.90909194946289)" style="opacity: 1;"><line x2="-6" y2="0"></line><text dy=".32em" x="-9" y="0" style="text-anchor: end;">10</text></g><g class="tick" transform="translate(0,19)" style="opacity: 1;"><line x2="-6" y2="0"></line><text dy=".32em" x="-9" y="0" style="text-anchor: end;">11</text></g><path class="domain" d="M-6,19H0V447H-6"></path><text class="label" dy=".71em" style="text-anchor: end; fill: magenta;">cost</text></g></g></svg>