<svg class="graphCanvas" id="ta_canvas_graph2" width="350" height="450" version="1.1" xmlns="http://www.w3.org/2000/svg"><g transform="translate(27,17)"><rect class="timewindow" opacity="1" x="79.4" width="26.19999999999999" y="17" height="416"/><g id="labels"><g class="label unselectable" opacity="1"><path class="labelpath" stroke="gray" stroke-width="2" fill="none" d="M27,399L105.6,360.8" style="stroke-dasharray: 0; stroke: gray;"/><g class="labelend" transform="translate(105.6,360.8)" style="cursor: pointer;"><rect rx="50" ry="5" height="20" y="-10" width="10" x="-5" style="fill: rgb(115, 183, 141); stroke-width: 0.5; stroke: black;"/><text dominant-baseline="middle" style="text-anchor: middle;">c</text></g></g><g class="label unselectable" opacity="1"><path class="labelpath" stroke="gray" stroke-width="2" fill="none" d="M27,399L53.2,360.8L79.4,322.6" style="stroke-dasharray: 0; stroke: gray;"/><g class="labelend" transform="translate(79.4,322.6)" style="cursor: pointer;"><rect rx="50" ry="5" height="20" y="-10" width="10" x="-5" style="fill: rgb(115, 183, 141); stroke-width: 0.5; stroke: black;"/><text dominant-baseline="middle" style="text-anchor: middle;">d</text></g></g></g><g class="x axis" transform="translate(0,416)"><g class="tick" transform="translate(27,0)" style="opacity: 1;"><line y2="6" x2="0"/><text dy=".71em" y="9" x="0" style="text-anchor: middle;">0</text></g><g class="tick" transform="translate(53.2,0)" style="opacity: 1;"><line y2="6" x2="0"/><text dy=".71em" y="9" x="0" style="text-anchor: middle;">1</text></g><g class="tick" transform="translate(79.4,0)" style="opacity: 1;"><line y2="6" x2="0"/><text dy=".71em" y="9" x="0" style="text-anchor: middle;">2</text></g><g class="tick" transform="translate(105.6,0)" style="opacity: 1;"><line y2="6" x2="0"/><text dy=".71em" y="9" x="0" style="text-anchor: middle;">3</text></g><g class="tick" transform="translate(131.8,0)" style="opacity: 1;"><line y2="6" x2="0"/><text dy=".71em" y="9" x="0" style="text-anchor: middle;">4</text></g><g class="tick" transform="translate(158,0)" style="opacity: 1;"><line y2="6" x2="0"/><text dy=".71em" y="9" x="0" style="text-anchor: middle;">5</text></g><g class="tick" transform="translate(184.20000000000002,0)" style="opacity: 1;"><line y2="6" x2="0"/><text dy=".71em" y="9" x="0" style="text-anchor: middle;">6</text></g><g class="tick" transform="translate(210.39999999999998,0)" style="opacity: 1;"><line y2="6" x2="0"/><text dy=".71em" y="9" x="0" style="text-anchor: middle;">7</text></g><g class="tick" transform="translate(236.60000000000002,0)" style="opacity: 1;"><line y2="6" x2="0"/><text dy=".71em" y="9" x="0" style="text-anchor: middle;">8</text></g><g class="tick" transform="translate(262.8,0)" style="opacity: 1;"><line y2="6" x2="0"/><text dy=".71em" y="9" x="0" style="text-anchor: middle;">9</text></g><g class="tick" transform="translate(289,0)" style="opacity: 1;"><line y2="6" x2="0"/><text dy=".71em" y="9" x="0" style="text-anchor: middle;">10</text></g><path class="domain" d="M27,6V0H289V6"/><text class="label" x="306" y="0" style="text-anchor: end;">time</text></g><g class="y axis" transform="translate(10,0)"><g class="tick" transform="translate(0,399)" style="opacity: 1;"><line x2="-6" y2="0"/><text dy=".32em" x="-9" y="0" style="text-anchor: end;">0</text></g><g class="tick" transform="translate(0,360.8)" style="opacity: 1;"><line x2="-6" y2="0"/><text dy=".32em" x="-9" y="0" style="text-anchor: end;">1</text></g><g class="tick" transform="translate(0,322.6)" style="opacity: 1;"><line x2="-6" y2="0"/><text dy=".32em" x="-9" y="0" style="text-anchor: end;">2</text></g><g class="tick" transform="translate(0,284.4)" style="opacity: 1;"><line x2="-6" y2="0"/><text dy=".32em" x="-9" y="0" style="text-anchor: end;">3</text></g><g class="tick" transform="translate(0,246.2)" style="opacity: 1;"><line x2="-6" y2="0"/><text dy=".32em" x="-9" y="0" style="text-anchor: end;">4</text></g><g class="tick" transform="translate(0,208)" style="opacity: 1;"><line x2="-6" y2="0"/><text dy=".32em" x="-9" y="0" style="text-anchor: end;">5</text></g><g class="tick" transform="translate(0,169.8)" style="opacity: 1;"><line x2="-6" y2="0"/><text dy=".32em" x="-9" y="0" style="text-anchor: end;">6</text></g><g class="tick" transform="translate(0,131.60000000000002)" style="opacity: 1;"><line x2="-6" y2="0"/><text dy=".32em" x="-9" y="0" style="text-anchor: end;">7</text></g><g class="tick" transform="translate(0,93.39999999999998)" style="opacity: 1;"><line x2="-6" y2="0"/><text dy=".32em" x="-9" y="0" style="text-anchor: end;">8</text></g><g class="tick" transform="translate(0,55.19999999999999)" style="opacity: 1;"><line x2="-6" y2="0"/><text dy=".32em" x="-9" y="0" style="text-anchor: end;">9</text></g><g class="tick" transform="translate(0,17)" style="opacity: 1;"><line x2="-6" y2="0"/><text dy=".32em" x="-9" y="0" style="text-anchor: end;">10</text></g><path class="domain" d="M-6,17H0V399H-6"/><text class="label" dy=".71em" style="text-anchor: end;">cost</text></g></g></svg>