
                    <svg class="graphCanvas" id="ta_canvas_graph" width="316" height="406" version="1.1" xmlns="http://www.w3.org/2000/svg"><defs><marker id="arrowhead612020" refX="12" refY="2" markerWidth="12" markerHeight="4" orient="auto"><path d="M 0,0 V 4 L6,2 Z"></path></marker></defs><g transform="translate(17,27),translate(-17,-17)"><g id="edges"><g class="edge"><line class="arrow" marker-end="url(#arrowhead612020)" y2="17" x2="158" y1="198" x1="17" style="stroke: rgb(0, 0, 0); stroke-width: 2px;"></line><text class="resource unselectable edgeLabel" dominant-baseline="text-after-edge" y="107.5" x="87.5" style="text-anchor: end;">(8,3)</text></g><g class="edge"><line class="arrow" marker-end="url(#arrowhead612020)" y2="198" x2="158" y1="198" x1="17" style="stroke: rgb(0, 0, 0); stroke-width: 2px;"></line><text class="resource unselectable edgeLabel" dominant-baseline="text-after-edge" y="198" x="87.5" style="text-anchor: end;">(5,5)</text></g><g class="edge"><line class="arrow" marker-end="url(#arrowhead612020)" y2="379" x2="158" y1="198" x1="17" style="stroke: rgb(0, 0, 0); stroke-width: 2px;"></line><text class="resource unselectable edgeLabel" dominant-baseline="text-before-edge" y="288.5" x="87.5" style="text-anchor: end;">(12,2)</text></g><g class="edge"><line class="arrow" marker-end="url(#arrowhead612020)" y2="198" x2="299" y1="17" x1="158" style="stroke: rgb(0, 0, 0); stroke-width: 2px;"></line><text class="resource unselectable edgeLabel" dominant-baseline="text-before-edge" y="107.5" x="228.5" style="text-anchor: end;">(4,7)</text></g><g class="edge"><line class="arrow" marker-end="url(#arrowhead612020)" y2="198" x2="299" y1="198" x1="158" style="stroke: rgb(0, 0, 0); stroke-width: 2px;"></line><text class="resource unselectable edgeLabel" dominant-baseline="text-after-edge" y="198" x="228.5" style="text-anchor: end;">(2,6)</text></g><g class="edge"><line class="arrow" marker-end="url(#arrowhead612020)" y2="198" x2="299" y1="379" x1="158" style="stroke: rgb(0, 0, 0); stroke-width: 2px;"></line><text class="resource unselectable edgeLabel" dominant-baseline="text-after-edge" y="288.5" x="228.5" style="text-anchor: end;">(4,3)</text></g></g><g id="nodes"><g class="node" transform="translate(17,198)"><circle r="15" style="fill: rgb(115, 183, 141); stroke-width: 2px; stroke: rgb(0, 101, 189);"></circle><text class="label unselectable" dy=".35em" text-anchor="middle">s</text><text class="resource unselectable" dy="-15px" text-anchor="middle">[0,0]</text></g><g class="node" transform="translate(158,17)"><circle r="15" style="fill: rgb(152, 198, 234); stroke-width: 2px; stroke: rgb(0, 101, 189);"></circle><text class="label unselectable" dy=".35em" text-anchor="middle">1</text><text class="resource unselectable" dy="-15px" text-anchor="middle">[6,14]</text></g><g class="node" transform="translate(158,198)"><circle r="15" style="fill: rgb(152, 198, 234); stroke-width: 2px; stroke: rgb(0, 101, 189);"></circle><text class="label unselectable" dy=".35em" text-anchor="middle">2</text><text class="resource unselectable" dy="-15px" text-anchor="middle">[9,12]</text></g><g class="node" transform="translate(158,379)"><circle r="15" style="fill: rgb(152, 198, 234); stroke-width: 2px; stroke: rgb(0, 101, 189);"></circle><text class="label unselectable" dy=".35em" text-anchor="middle">3</text><text class="resource unselectable" dy="-15px" text-anchor="middle">[8,12]</text></g><g class="node" transform="translate(299,198)"><circle r="15" style="fill: rgb(152, 198, 234); stroke-width: 2px; stroke: rgb(0, 101, 189);"></circle><text class="label unselectable" dy=".35em" text-anchor="middle">4</text><text class="resource unselectable" dy="-15px" text-anchor="middle">[9,15]</text></g></g></g></svg><svg class="graphCanvas2" id="ta_canvas_graph2" width="350" height="450" version="1.1" xmlns="http://www.w3.org/2000/svg"><g transform="translate(27,17)"><g id="labels"><g class="label"><path class="labelpath" stroke="lightgray" stroke-width="1" fill="none" d="M27,399"></path><g class="labelend" transform="translate(27,399)" style="opacity: 1;"><rect rx="50" ry="5" height="20" y="-10" width="7" x="-3.5" style="fill: rgb(255, 255, 0); stroke-width: 2px; fill-opacity: 0.5;"></rect><text dominant-baseline="middle" style="text-anchor: middle;">s</text></g><rect class="timewindow" x="24" width="6" y="17" height="416" style="display: none;"></rect></g></g><g class="x axis" transform="translate(0,416)"><g class="tick" transform="translate(27,0)" style="opacity: 1;"><line y2="6" x2="0"></line><text dy=".71em" y="9" x="0" style="text-anchor: middle;">0</text></g><g class="tick" transform="translate(53.2,0)" style="opacity: 1;"><line y2="6" x2="0"></line><text dy=".71em" y="9" x="0" style="text-anchor: middle;">1</text></g><g class="tick" transform="translate(79.4,0)" style="opacity: 1;"><line y2="6" x2="0"></line><text dy=".71em" y="9" x="0" style="text-anchor: middle;">2</text></g><g class="tick" transform="translate(105.6,0)" style="opacity: 1;"><line y2="6" x2="0"></line><text dy=".71em" y="9" x="0" style="text-anchor: middle;">3</text></g><g class="tick" transform="translate(131.8,0)" style="opacity: 1;"><line y2="6" x2="0"></line><text dy=".71em" y="9" x="0" style="text-anchor: middle;">4</text></g><g class="tick" transform="translate(158,0)" style="opacity: 1;"><line y2="6" x2="0"></line><text dy=".71em" y="9" x="0" style="text-anchor: middle;">5</text></g><g class="tick" transform="translate(184.20000000000002,0)" style="opacity: 1;"><line y2="6" x2="0"></line><text dy=".71em" y="9" x="0" style="text-anchor: middle;">6</text></g><g class="tick" transform="translate(210.39999999999998,0)" style="opacity: 1;"><line y2="6" x2="0"></line><text dy=".71em" y="9" x="0" style="text-anchor: middle;">7</text></g><g class="tick" transform="translate(236.60000000000002,0)" style="opacity: 1;"><line y2="6" x2="0"></line><text dy=".71em" y="9" x="0" style="text-anchor: middle;">8</text></g><g class="tick" transform="translate(262.8,0)" style="opacity: 1;"><line y2="6" x2="0"></line><text dy=".71em" y="9" x="0" style="text-anchor: middle;">9</text></g><g class="tick" transform="translate(289,0)" style="opacity: 1;"><line y2="6" x2="0"></line><text dy=".71em" y="9" x="0" style="text-anchor: middle;">10</text></g><path class="domain" d="M27,6V0H289V6"></path><text class="label" x="306" y="0" style="text-anchor: end;">time</text></g><g class="y axis" transform="translate(10,0)"><g class="tick" transform="translate(0,399)" style="opacity: 1;"><line x2="-6" y2="0"></line><text dy=".32em" x="-9" y="0" style="text-anchor: end;">0</text></g><g class="tick" transform="translate(0,360.8)" style="opacity: 1;"><line x2="-6" y2="0"></line><text dy=".32em" x="-9" y="0" style="text-anchor: end;">1</text></g><g class="tick" transform="translate(0,322.6)" style="opacity: 1;"><line x2="-6" y2="0"></line><text dy=".32em" x="-9" y="0" style="text-anchor: end;">2</text></g><g class="tick" transform="translate(0,284.4)" style="opacity: 1;"><line x2="-6" y2="0"></line><text dy=".32em" x="-9" y="0" style="text-anchor: end;">3</text></g><g class="tick" transform="translate(0,246.2)" style="opacity: 1;"><line x2="-6" y2="0"></line><text dy=".32em" x="-9" y="0" style="text-anchor: end;">4</text></g><g class="tick" transform="translate(0,208)" style="opacity: 1;"><line x2="-6" y2="0"></line><text dy=".32em" x="-9" y="0" style="text-anchor: end;">5</text></g><g class="tick" transform="translate(0,169.8)" style="opacity: 1;"><line x2="-6" y2="0"></line><text dy=".32em" x="-9" y="0" style="text-anchor: end;">6</text></g><g class="tick" transform="translate(0,131.60000000000002)" style="opacity: 1;"><line x2="-6" y2="0"></line><text dy=".32em" x="-9" y="0" style="text-anchor: end;">7</text></g><g class="tick" transform="translate(0,93.39999999999998)" style="opacity: 1;"><line x2="-6" y2="0"></line><text dy=".32em" x="-9" y="0" style="text-anchor: end;">8</text></g><g class="tick" transform="translate(0,55.19999999999999)" style="opacity: 1;"><line x2="-6" y2="0"></line><text dy=".32em" x="-9" y="0" style="text-anchor: end;">9</text></g><g class="tick" transform="translate(0,17)" style="opacity: 1;"><line x2="-6" y2="0"></line><text dy=".32em" x="-9" y="0" style="text-anchor: end;">10</text></g><path class="domain" d="M-6,17H0V399H-6"></path><text class="label" dy=".71em" style="text-anchor: end;">cost</text></g></g></svg>
                    